<svg width="176" height="44" viewBox="0 0 176 44" fill="none" xmlns="http://www.w3.org/2000/svg">
<path d="M35.5227 13.9323C29.128 13.9323 24.134 18.787 24.134 25.2843C24.134 31.7816 29.0033 36.5923 35.5227 36.5923C42.042 36.5923 46.992 31.701 46.992 25.2476C46.992 18.831 42.1227 13.9323 35.5227 13.9323ZM35.5667 31.9136C31.922 31.9136 29.26 29.083 29.26 25.2843C29.26 21.449 31.878 18.6183 35.5227 18.6183C39.204 18.6183 41.8733 21.493 41.8733 25.2916C41.8733 29.083 39.204 31.9136 35.5667 31.9136ZM48.3927 18.875H51.568V36.1816H56.65V14.3503H48.3927V18.875ZM11.3447 18.6183C14.014 18.6183 16.1333 20.261 16.9327 22.7103H22.3153C21.34 17.4816 17.0207 13.9323 11.3887 13.9323C4.994 13.9323 0 18.787 0 25.2843C0 31.789 4.86933 36.5996 11.3887 36.5996C16.8887 36.5996 21.296 33.0503 22.2713 27.7776H16.9327C16.5868 28.9778 15.8577 30.0317 14.8567 30.7785C13.8556 31.5254 12.6376 31.924 11.3887 31.9136C7.70733 31.9136 5.11867 29.083 5.11867 25.2843C5.11867 21.449 7.66333 18.6183 11.352 18.6183H11.3447ZM144.921 23.1796L141.196 22.6296C139.421 22.373 138.153 21.7863 138.153 20.393C138.153 18.875 139.803 18.1196 142.039 18.1196C144.503 18.1196 146.073 19.1683 146.403 20.899H151.316C150.766 16.5063 147.378 13.9323 142.171 13.9323C136.796 13.9323 133.239 16.6823 133.239 20.5616C133.239 24.2723 135.564 26.4283 140.265 27.103L143.99 27.653C145.816 27.9023 146.828 28.621 146.828 29.9703C146.828 31.701 145.053 32.4196 142.597 32.4196C139.59 32.4196 137.896 31.195 137.639 29.3396H132.645C133.115 33.6003 136.459 36.5996 142.545 36.5996C148.097 36.5996 151.785 34.0623 151.785 29.721C151.785 25.8343 149.116 23.8103 144.921 23.1796ZM54.1053 5.36697C53.678 5.35194 53.2522 5.42416 52.8537 5.57923C52.4553 5.73429 52.0927 5.96894 51.7879 6.26885C51.4832 6.56877 51.2428 6.92764 51.0815 7.32357C50.9201 7.71949 50.8411 8.14416 50.8493 8.57163C50.8493 10.4343 52.2427 11.7836 54.1053 11.7836C54.5339 11.7997 54.9611 11.728 55.3609 11.573C55.7608 11.4179 56.1246 11.1828 56.4303 10.882C56.7359 10.5812 56.9768 10.221 57.1381 9.82375C57.2995 9.42645 57.378 9.00035 57.3687 8.57163C57.377 8.14352 57.2978 7.71823 57.1359 7.32179C56.9741 6.92536 56.7331 6.56613 56.4275 6.26611C56.122 5.96609 55.7585 5.7316 55.3592 5.57699C54.9599 5.42238 54.5332 5.35092 54.1053 5.36697ZM128.663 21.8303C128.663 17.1003 125.789 13.9396 119.687 13.9396C113.931 13.9396 110.711 16.851 110.081 21.3243H115.119C115.375 19.5936 116.732 18.1563 119.607 18.1563C122.188 18.1563 123.457 19.293 123.457 20.6863C123.457 22.505 121.132 22.967 118.25 23.2603C114.356 23.6856 109.523 25.035 109.523 30.1023C109.523 34.0256 112.457 36.5556 117.106 36.5556C120.751 36.5556 123.039 35.0376 124.183 32.6323C124.351 34.781 125.957 36.1743 128.201 36.1743H131.164V31.657H128.671V21.8303H128.663ZM123.677 27.3156C123.677 30.227 121.132 32.3756 118.037 32.3756C116.131 32.3756 114.517 31.569 114.517 29.8823C114.517 27.7336 117.106 27.147 119.475 26.8903C121.763 26.685 123.031 26.179 123.669 25.2036L123.677 27.3156ZM96.6973 13.9323C93.8667 13.9323 91.4907 15.1203 89.804 17.1003V5.1543H84.722V36.1743H89.7087V33.307C91.41 35.375 93.8153 36.5996 96.6973 36.5996C102.799 36.5996 107.411 31.789 107.411 25.2843C107.411 18.787 102.718 13.9323 96.7047 13.9323H96.6973ZM95.942 31.9136C92.2973 31.9136 89.6353 29.083 89.6353 25.2843C89.6353 21.493 92.3413 18.6183 95.9787 18.6183C99.6673 18.6183 102.249 21.449 102.249 25.2916C102.249 29.083 99.5793 31.9136 95.942 31.9136ZM72.5707 13.9323C69.2707 13.9323 67.1073 15.2816 65.8313 17.181V14.3576H60.7933V36.1743H65.8753V24.3163C65.8753 20.9796 67.9947 18.6183 71.126 18.6183C74.0447 18.6183 75.8707 20.6863 75.8707 23.6783V36.1743H80.9453V23.3043C80.9453 17.819 78.1147 13.9323 72.5707 13.9323ZM176 24.5656C176 18.325 171.424 13.9323 165.293 13.9323C158.767 13.9323 153.985 18.831 153.985 25.2843C153.985 32.0823 159.104 36.5996 165.374 36.5996C170.669 36.5996 174.812 33.4756 175.875 29.0463H170.581C169.818 30.9823 167.955 32.0823 165.455 32.0823C162.191 32.0823 159.735 30.0583 159.192 26.509H176V24.573V24.5656ZM159.485 22.879C160.292 19.843 162.58 18.369 165.205 18.369C168.08 18.369 170.287 20.0116 170.793 22.879H159.485Z" fill="#699BF7"/>
</svg>
