<svg width="232" height="44" viewBox="0 0 232 44" fill="none" xmlns="http://www.w3.org/2000/svg">
<path d="M201.271 11.7539C202.67 11.7539 203.98 12.2076 205.131 13.0627C206.334 13.9527 206.989 15.3489 207.131 17.0245C207.138 17.0471 207.135 17.0712 207.125 17.0922C207.114 17.1131 207.096 17.1293 207.073 17.1374L207.024 17.1464H204.298C204.259 17.1464 204.219 17.1267 204.201 17.0949L204.192 17.059C203.873 14.6336 200.882 13.9702 199.077 15.1572C197.82 15.9948 197.572 17.9146 198.776 18.8915C199.248 19.2758 199.79 19.5821 200.341 19.8782L201.799 20.6621L203.079 21.3111C203.719 21.6358 204.352 21.9718 204.954 22.3646C207.024 23.7258 207.714 25.7853 207.342 28.0711C206.918 30.4101 204.83 32.6613 200.794 32.6613C199.254 32.6613 197.767 32.2425 196.404 31.2302C194.953 30.1655 194.422 28.9965 194.422 26.8845C194.422 26.8456 194.452 26.8061 194.489 26.7891L194.528 26.7802H197.483C197.536 26.7802 197.59 26.8321 197.59 26.8845C197.59 27.0767 197.625 27.513 197.696 27.7401C198.104 28.9965 199.271 29.7991 200.776 29.8865C202.157 29.9738 203.537 29.2236 204.068 28.1409C204.652 26.9544 204.227 25.4534 202.883 24.6338L202.71 24.5298L202.071 24.1688L201.301 23.7522L197.583 21.8146L197.357 21.69L197.288 21.6493C193.413 19.2753 194.068 11.7539 201.271 11.7539H201.271ZM218.936 12.1552C218.976 12.1552 219.016 12.1848 219.034 12.2215L219.043 12.2601V20.1134C219.043 20.1832 219.111 20.2307 219.174 20.211L219.219 20.1833L227.025 12.1902C227.036 12.1775 227.05 12.1674 227.066 12.1606L227.096 12.1552H230.866C230.937 12.1552 230.985 12.2224 230.965 12.2851L230.937 12.3299L221.732 21.7541C221.721 21.7668 221.712 21.7822 221.708 21.7988C221.704 21.8155 221.704 21.8329 221.708 21.8495L221.732 21.8934L231.963 32.3119C232.019 32.354 231.997 32.4409 231.949 32.4826L231.91 32.5045H228.14L228.104 32.4933L228.069 32.4692L219.22 23.4642C219.177 23.4083 219.089 23.4306 219.056 23.4866L219.042 23.5341V32.3997C219.042 32.4387 219.013 32.4781 218.976 32.4951L218.936 32.5041H215.98C215.94 32.5041 215.9 32.475 215.883 32.4383L215.874 32.3997V12.2601C215.874 12.2206 215.904 12.1817 215.941 12.1642L215.98 12.1552H218.936ZM68.5941 12.1378C68.6294 12.1378 68.6575 12.1458 68.677 12.1664L68.7006 12.2076L71.1251 20.0959C71.1304 20.1137 71.1402 20.1298 71.1535 20.1428C71.1668 20.1558 71.1833 20.1653 71.2013 20.1703C71.2193 20.1753 71.2383 20.1757 71.2565 20.1715C71.2748 20.1673 71.2916 20.1585 71.3055 20.1461L71.3377 20.0959L73.7627 12.2081C73.7751 12.1822 73.7958 12.1611 73.8216 12.1481L73.8687 12.1378H78.3468C78.3867 12.1378 78.4266 12.1673 78.4438 12.2041L78.4529 12.2426V32.3827C78.4529 32.4217 78.423 32.4611 78.3858 32.4781L78.3468 32.4871H75.3907C75.3513 32.4871 75.3114 32.458 75.2938 32.4212L75.2847 32.3827V17.0774C75.2847 16.9753 75.1619 16.9341 75.1003 16.9941L75.0722 17.0425L72.6299 24.9831L72.4528 25.5412C72.4403 25.5669 72.4196 25.5879 72.3939 25.6008L72.3467 25.6111H70.0812C70.0454 25.6111 70.0177 25.6035 69.9983 25.5829L69.9747 25.5412L69.798 24.9831L67.3557 17.0425C67.3258 16.9551 67.198 16.9529 67.1563 17.025L67.1428 17.0774V32.3827C67.1428 32.4217 67.1129 32.4611 67.0757 32.4781L67.0367 32.4871H64.0806C64.0408 32.4871 64.0009 32.458 63.9837 32.4212L63.9746 32.3827V12.2426C63.9746 12.2032 64.0045 12.1642 64.0417 12.1467L64.0806 12.1378H68.5941ZM154.421 12.1378C154.456 12.1378 154.483 12.1458 154.503 12.1664L154.527 12.2076L156.952 20.0959C156.957 20.1136 156.967 20.1296 156.98 20.1426C156.994 20.1555 157.01 20.165 157.028 20.17C157.046 20.175 157.065 20.1754 157.083 20.1712C157.101 20.1671 157.118 20.1584 157.132 20.1461L157.165 20.0959L159.588 12.2081C159.601 12.1822 159.621 12.1611 159.647 12.1481L159.694 12.1378H164.19C164.23 12.1378 164.27 12.1673 164.287 12.2041L164.297 12.2426V32.3827C164.297 32.4217 164.267 32.4611 164.229 32.4781L164.19 32.4871H161.235C161.195 32.4871 161.156 32.458 161.138 32.4212L161.129 32.3827V17.0774C161.129 16.9753 161.006 16.9341 160.944 16.9941L160.917 17.0425L158.474 24.9831L158.297 25.5412C158.284 25.567 158.263 25.588 158.238 25.6008L158.19 25.6111H155.925C155.889 25.6111 155.861 25.6035 155.842 25.5829L155.818 25.5412L155.641 24.9831L153.2 17.0425C153.17 16.9551 153.042 16.9529 153 17.025L152.987 17.0774V32.3827C152.987 32.4217 152.957 32.4611 152.92 32.4781L152.881 32.4871H149.924C149.884 32.4871 149.845 32.458 149.827 32.4212L149.818 32.3827V12.2426C149.818 12.2032 149.848 12.1642 149.885 12.1467L149.924 12.1378H154.421ZM121.57 12.1378C121.591 12.1366 121.613 12.1424 121.631 12.1544C121.649 12.1664 121.662 12.1838 121.669 12.2041L121.676 12.2426V14.7554C121.676 14.7948 121.646 14.8342 121.608 14.8513L121.57 14.8602H116.171V32.3827C116.171 32.4217 116.141 32.4611 116.104 32.4781L116.065 32.4871H113.109C113.069 32.4871 113.029 32.458 113.012 32.4212L113.003 32.3827V14.8602H107.604C107.564 14.8602 107.524 14.8306 107.507 14.7939L107.498 14.7554V12.2426C107.498 12.2027 107.528 12.1637 107.565 12.1463L107.604 12.1373H121.569L121.57 12.1378ZM136.136 12.0679C136.172 12.0679 136.2 12.0755 136.219 12.0961L136.243 12.1378L141.8 32.3469C141.806 32.3714 141.804 32.3973 141.794 32.4204C141.783 32.4435 141.765 32.4625 141.743 32.4745L141.694 32.4866H139.004C138.975 32.4836 138.947 32.471 138.925 32.4508L138.898 32.4167L137.287 26.5356C137.275 26.5099 137.254 26.4889 137.229 26.476L137.181 26.4657H131.233C131.198 26.4657 131.17 26.4733 131.151 26.4939L131.127 26.5356L129.517 32.4167C129.504 32.4425 129.483 32.4634 129.458 32.4763L129.41 32.4866H126.72C126.695 32.4862 126.67 32.4772 126.651 32.4612C126.631 32.4451 126.618 32.423 126.613 32.3984L126.614 32.3469L132.171 12.1378C132.184 12.112 132.205 12.0911 132.23 12.0782L132.277 12.0679H136.136H136.136ZM182.014 12.0679C182.049 12.0679 182.077 12.0755 182.097 12.0961L182.121 12.1378L187.677 32.3469C187.684 32.3715 187.681 32.3973 187.671 32.4205C187.66 32.4436 187.643 32.4626 187.62 32.4745L187.571 32.4866H184.882C184.866 32.4867 184.851 32.4836 184.836 32.4774C184.822 32.4712 184.809 32.4622 184.799 32.4508L184.775 32.4167L183.165 26.5356C183.152 26.5099 183.132 26.4889 183.106 26.476L183.058 26.4657H177.111C177.076 26.4657 177.048 26.4733 177.029 26.4939L177.005 26.5356L175.395 32.4167C175.383 32.4425 175.362 32.4634 175.336 32.4763L175.289 32.4866H172.598C172.573 32.4862 172.548 32.4772 172.529 32.4612C172.509 32.4451 172.496 32.423 172.491 32.3984L172.491 32.3469L178.049 12.1378C178.061 12.112 178.082 12.0911 178.108 12.0782L178.155 12.0679H182.014H182.014ZM99.5162 12.1552C99.5556 12.1552 99.5955 12.1848 99.6127 12.2215L99.6217 12.2601V14.7729C99.6217 14.8123 99.5923 14.8517 99.5547 14.8687L99.5157 14.8777H90.5595C90.5197 14.8777 90.4798 14.9072 90.4626 14.944L90.4535 14.9825V20.323C90.4535 20.362 90.4834 20.4014 90.5206 20.4184L90.5595 20.4274H98.4359C98.4758 20.4274 98.5157 20.4569 98.5334 20.4937L98.5424 20.5322V23.045C98.5424 23.0844 98.5125 23.1238 98.4749 23.1408L98.4359 23.1498H90.5595C90.5197 23.1498 90.4798 23.1794 90.4626 23.2161L90.4535 23.2546V29.5026C90.4535 29.5492 90.4694 29.5801 90.4956 29.6011L90.5419 29.6249H99.8873C99.9271 29.6249 99.967 29.654 99.9847 29.6912L99.9937 29.7292V32.3823C99.9937 32.4212 99.9638 32.4606 99.9267 32.4777L99.8873 32.4866H87.3914C87.3515 32.4866 87.3116 32.4575 87.2944 32.4203L87.2853 32.3823V12.2601C87.2853 12.2206 87.3153 12.1817 87.3524 12.1642L87.3914 12.1552H99.5157H99.5162ZM134.314 15.7153C134.308 15.6975 134.299 15.6814 134.285 15.6684C134.272 15.6553 134.256 15.6459 134.238 15.6409C134.22 15.6359 134.201 15.6355 134.182 15.6397C134.164 15.6439 134.147 15.6527 134.133 15.6651L134.101 15.7153L131.942 23.5861C131.928 23.6385 131.955 23.6909 131.999 23.7137L132.048 23.7258H136.367C136.392 23.7253 136.416 23.7163 136.436 23.7002C136.455 23.6842 136.469 23.6621 136.474 23.6376L136.473 23.5861L134.314 15.7153ZM180.191 15.7153C180.186 15.6975 180.176 15.6814 180.163 15.6684C180.15 15.6553 180.133 15.6459 180.115 15.6409C180.097 15.6359 180.078 15.6355 180.06 15.6397C180.042 15.6439 180.025 15.6527 180.011 15.6651L179.979 15.7153L177.819 23.5861C177.806 23.6385 177.833 23.6909 177.876 23.7137L177.925 23.7258H182.244C182.27 23.7254 182.294 23.7164 182.314 23.7004C182.333 23.6843 182.347 23.6622 182.352 23.6376L182.351 23.5861L180.191 15.7153Z" fill="#151515"/>
<path d="M45.2061 0.5L25.3499 15.0237L29.0423 6.46446L45.2061 0.5Z" fill="#E17726"/>
<path d="M1.12336 0.517578L17.2437 6.46591L20.7499 15.1376L1.12336 0.517578ZM37.2159 31.3884L45.9917 31.5537L42.9246 41.8536L32.2158 38.939L37.2159 31.3884ZM9.0673 31.3884L14.0488 38.939L3.35765 41.854L0.30957 31.5537L9.0673 31.3884Z" fill="#E27625"/>
<path d="M20.2729 12.9279L20.6318 24.3789L9.89941 23.896L12.952 19.3434L12.991 19.2995L20.2729 12.9279ZM25.8988 12.7998L33.2917 19.3L33.3302 19.3439L36.3828 23.896L25.6532 24.3789L25.8988 12.7998ZM14.3626 31.4206L20.2226 35.9343L13.4156 39.183L14.3626 31.4206ZM31.9211 31.4201L32.8486 39.183L26.0605 35.9338L31.9211 31.4201Z" fill="#E27625"/>
<path d="M26.2101 35.5088L33.0983 38.8059L26.6908 41.8163L26.7575 39.8267L26.2101 35.5088ZM20.07 35.5101L19.5444 39.794L19.5874 41.8141L13.165 38.8059L20.07 35.5101Z" fill="#D5BFB2"/>
<path d="M18.081 25.874L19.8813 29.6137L13.7529 27.839L18.081 25.874ZM28.2008 25.8745L32.5498 27.839L26.4015 29.6132L28.2008 25.8745Z" fill="#233447"/>
<path d="M14.8313 31.383L13.8408 39.4311L8.53125 31.559L14.8313 31.383ZM31.4523 31.383L37.7528 31.559L32.4233 39.4316L31.4523 31.383ZM36.5385 23.4414L31.953 28.0608L28.4183 26.4639L26.7255 29.981L25.6162 23.9328L36.5385 23.4414ZM9.74287 23.4414L20.6669 23.9328L19.5572 29.981L17.8644 26.4644L14.3478 28.0608L9.74287 23.4414Z" fill="#CC6228"/>
<path d="M9.43335 22.4938L14.6206 27.6972L14.8004 32.8344L9.43335 22.4938ZM36.8543 22.4844L31.4776 32.8433L31.6797 27.6972L36.8543 22.4844ZM20.4127 22.8105L20.6216 24.1099L21.1377 27.3461L20.806 37.2853L19.2378 29.3008L19.2373 29.2184L20.4127 22.8105ZM25.8668 22.7925L27.0453 29.2184L27.0449 29.3008L25.473 37.3055L25.4105 35.3033L25.1654 27.2869L25.8668 22.7925Z" fill="#E27525"/>
<path d="M32.141 27.4902L31.9656 31.9537L26.4929 36.1686L25.3869 35.396L26.6266 29.0817L32.141 27.4902ZM14.1602 27.4907L19.6555 29.0821L20.8952 35.396L19.7892 36.1686L14.3165 31.9533L14.1602 27.4907Z" fill="#F5841F"/>
<path d="M12.1182 37.8213L19.1192 41.1005L19.0897 39.6999L19.6756 39.1919H26.605L27.2117 39.6985L27.1669 41.0978L34.1239 37.8294L30.7387 40.5948L26.6453 43.3741H19.6194L15.5287 40.5831L12.1182 37.8213Z" fill="#C0AC9D"/>
<path d="M25.708 35.0732L26.6981 35.7644L27.2781 40.3394L26.4385 39.6389H19.8452L19.0215 40.3537L19.5829 35.7648L20.5729 35.0732H25.708Z" fill="#151515"/>
<path d="M43.8951 0.902344L46.2785 7.97047L44.79 15.1174L45.8499 15.9259L44.4158 17.0076L45.4937 17.8305L44.0664 19.1155L44.9427 19.7431L42.6169 22.4279L33.078 19.6826L32.9956 19.6387L26.1219 13.9067L43.8951 0.902344ZM2.38703 0.902344L20.1607 13.9067L13.2866 19.6387L13.2041 19.6826L3.66525 22.4279L1.33989 19.7431L2.2153 19.116L0.78845 17.8305L1.86459 17.0085L0.408743 15.9237L1.5089 15.1147L0.00366211 7.97092L2.38703 0.902344Z" fill="#763E1A"/>
<path d="M32.611 19.0823L42.7181 21.9915L46.0018 31.9953H37.3392L31.3699 32.0696L35.7107 23.7057L32.611 19.0823ZM13.6705 19.0823L10.5699 23.7057L14.9116 32.0696L8.94547 31.9953H0.297852L3.56342 21.9915L13.6705 19.0823ZM29.5371 6.41699L26.7097 13.9648L26.1098 24.1608L25.8805 27.3566L25.8624 35.5208H20.4191L20.4015 27.3719L20.1713 24.1581L19.5709 13.9648L16.7444 6.41699H29.5371Z" fill="#F5841F"/>
</svg>
