<svg width="30" height="28" viewBox="0 0 30 28" fill="none" xmlns="http://www.w3.org/2000/svg">
<path d="M8.92336 6.2589C9.51107 5.24096 9.93563 4.50659 10.3075 3.98351C10.6807 3.45852 10.9565 3.21284 11.2192 3.10245C11.7186 2.89252 12.2814 2.89252 12.7808 3.10245C13.0435 3.21284 13.3193 3.45852 13.6925 3.98351C14.0644 4.50659 14.4889 5.24096 15.0766 6.2589L18.5103 12.2061C19.098 13.224 19.5217 13.9589 19.7887 14.5425C20.0568 15.1282 20.1316 15.4899 20.0959 15.7725C20.028 16.31 19.7466 16.7975 19.3151 17.125C19.0882 17.2972 18.7375 17.4133 18.0962 17.474C17.4573 17.5345 16.609 17.535 15.4336 17.535H8.56638C7.39096 17.535 6.5427 17.5345 5.90376 17.474C5.2625 17.4133 4.91183 17.2972 4.68491 17.125C4.25341 16.7975 3.97197 16.31 3.90407 15.7725C3.86837 15.4899 3.94322 15.1282 4.21126 14.5425C4.47833 13.9589 4.90203 13.224 5.48974 12.2061L8.92336 6.2589Z" stroke="#592ED3" stroke-width="0.93"/>
<path d="M14.9234 10.2589C15.5111 9.24096 15.9356 8.50659 16.3075 7.98351C16.6807 7.45852 16.9565 7.21284 17.2192 7.10245C17.7186 6.89252 18.2814 6.89252 18.7808 7.10245C19.0435 7.21284 19.3193 7.45852 19.6925 7.98351C20.0644 8.50659 20.4889 9.24096 21.0766 10.2589L24.5103 16.2061C25.098 17.224 25.5217 17.9589 25.7887 18.5425C26.0568 19.1282 26.1316 19.4899 26.0959 19.7725C26.028 20.31 25.7466 20.7975 25.3151 21.125C25.0882 21.2972 24.7375 21.4133 24.0962 21.474C23.4573 21.5345 22.609 21.535 21.4336 21.535H14.5664C13.391 21.535 12.5427 21.5345 11.9038 21.474C11.2625 21.4133 10.9118 21.2972 10.6849 21.125C10.2534 20.7975 9.97197 20.31 9.90407 19.7725C9.86837 19.4899 9.94322 19.1282 10.2113 18.5425C10.4783 17.9589 10.902 17.224 11.4897 16.2061L14.9234 10.2589Z" fill="#6A45D0" stroke="white" stroke-width="0.93"/>
</svg>
